<?xml version="1.0" encoding="UTF-8"?> <svg xmlns="http://www.w3.org/2000/svg" id="Layer_1" viewBox="0 0 500 500"><path d="M14.8,181.23v226.52h473.65v-226.52H14.8ZM100.81,368.05c0,8.27-6.7,14.97-14.97,14.97h-11.94c-8.27,0-14.97-6.7-14.97-14.97v-121.5c0-8.26,6.7-14.96,14.97-14.96h11.94c8.27,0,14.97,6.7,14.97,14.96v121.5ZM186.7,368.05c0,8.27-6.7,14.97-14.97,14.97h-11.94c-8.27,0-14.97-6.7-14.97-14.97v-121.49c0-8.27,6.7-14.97,14.97-14.97h11.94c8.27,0,14.97,6.7,14.97,14.97v121.49ZM272.59,368.05c0,8.27-6.7,14.97-14.97,14.97h-11.94c-8.27,0-14.97-6.7-14.97-14.97v-121.49c0-8.27,6.7-14.97,14.97-14.97h11.94c8.27,0,14.97,6.7,14.97,14.97v121.49ZM354.4,368.05c0,8.27-6.7,14.97-14.97,14.97h-11.94c-8.27,0-14.97-6.7-14.97-14.97v-121.49c0-8.27,6.7-14.97,14.97-14.97h11.94c8.27,0,14.97,6.7,14.97,14.97v121.49ZM434.59,369.4c0,8.27-6.7,14.97-14.97,14.97h-11.94c-8.27,0-14.97-6.7-14.97-14.97v-121.5c0-8.26,6.7-14.96,14.97-14.96h11.94c8.27,0,14.97,6.7,14.97,14.96v121.5Z"></path><path d="M14.79,406.78h53.86v20.21c0,4.32-3.51,7.83-7.83,7.83H22.62c-4.32,0-7.83-3.51-7.83-7.83v-20.21h0Z"></path><path d="M434.58,406.78h53.86v17.98c0,5.55-4.5,10.05-10.05,10.05h-33.76c-5.55,0-10.05-4.5-10.05-10.05v-17.98h0Z"></path><rect x="3.81" y="175.07" width="494.97" height="45.9" rx="13.06" ry="13.06"></rect><g><path d="M167.61,142.88c0,6.97-1.48,13.64-4.2,19.8H39.41c-2.72-6.16-4.2-12.83-4.2-19.8,0-31.16,29.64-56.43,66.19-56.43,12.89,0,24.9,3.14,35.07,8.56,15.1,8.05,26.11,21.15,29.8,36.52.87,3.67,1.33,7.46,1.33,11.35Z"></path><path d="M287.84,136.81c0,8.01-3.2,15.59-8.9,22.31-1.02,1.21-2.13,2.4-3.33,3.56H127.74c-7.76-7.56-12.22-16.41-12.22-25.87,0-17.41,15.11-32.75,38.09-41.8,13.73-5.4,30.27-8.56,48.07-8.56,18.95,0,36.47,3.58,50.7,9.65,7.14,3.03,13.44,6.7,18.69,10.86,10.54,8.34,16.77,18.68,16.77,29.85Z"></path><path d="M328.23,99.79c-4.89-.19-9.85-.29-14.87-.29-26.4,0-51.26,2.7-73,7.46-6.86,1.5-13.41,3.21-19.6,5.1-17.09,5.22-31.45,11.85-42.04,19.47-12.78,9.19-20.08,19.82-20.08,31.15h309.44c0-32.85-61.38-59.84-139.85-62.89Z"></path><path d="M401.94,124.58c0,17.11-22.74,31.79-55.16,38.1h-71.11c-4.3-.83-8.44-1.82-12.37-2.94-25.68-7.31-42.78-20.32-42.78-35.16,0-1.26.13-2.5.38-3.74.9-4.66,3.5-9.1,7.52-13.19,14.17-14.42,45.92-24.47,82.81-24.47,39.42,0,72.97,11.48,85.47,27.52,3.39,4.34,5.23,9.01,5.23,13.88Z"></path></g></svg> 